<svg version="1.1" id="Layer_1" xmlns="http://www.w3.org/2000/svg" xmlns:xlink="http://www.w3.org/1999/xlink" x="0px" y="0px"
	 width="100%" viewBox="0 0 80 80" enable-background="new 0 0 80 80" xml:space="preserve">
<path fill="#FEFEFE" opacity="1.000000" stroke="none" 
	d="
M81.000000,12.000000 
	C81.000000,31.020895 81.000000,50.041790 80.702805,69.243095 
	C78.228508,71.823311 76.045227,74.217545 73.876648,76.625000 
	C72.572601,78.072685 71.291443,79.540970 70.000000,81.000000 
	C50.979103,81.000000 31.958210,81.000000 12.756910,80.702805 
	C10.176699,78.228516 7.782462,76.045242 5.374995,73.876648 
	C3.927315,72.572609 2.459027,71.291443 0.999999,70.000000 
	C1.000000,50.979103 1.000000,31.958210 1.297193,12.756908 
	C3.771481,10.176697 5.954761,7.782462 8.123356,5.375000 
	C9.427398,3.927321 10.708557,2.459029 12.000000,1.000000 
	C31.020895,1.000000 50.041790,1.000000 69.243088,1.297195 
	C71.823303,3.771486 74.217537,5.954767 76.624992,8.123361 
	C78.072670,9.427403 79.540970,10.708559 81.000000,12.000000 
M44.668137,36.659882 
	C49.763477,31.042782 54.858818,25.425682 60.138725,19.605120 
	C54.094276,17.893270 49.858051,19.388002 46.425003,24.144724 
	C44.003498,27.499887 40.885361,30.348194 38.122585,33.462132 
	C34.331974,37.734543 34.297222,40.012417 37.876331,44.321434 
	C40.855652,47.908352 44.302513,51.206615 46.717621,55.139183 
	C50.360691,61.071270 55.309067,62.075905 62.068604,60.486935 
	C56.380318,54.054150 50.846668,47.935577 45.521427,41.640705 
	C44.603779,40.555973 44.571659,38.722122 44.668137,36.659882 
M23.257509,46.493519 
	C23.257509,51.251320 23.257509,56.009121 23.257509,60.813110 
	C26.145851,60.813110 28.408960,60.813110 30.725094,60.813110 
	C30.725094,46.790482 30.725094,32.981163 30.725094,19.373482 
	C28.099234,19.373482 25.851683,19.373482 23.257568,19.373482 
	C23.257568,28.297470 23.257568,36.896381 23.257509,46.493519 
z"/>
<path fill="#000000" opacity="1.000000" stroke="none" 
	d="
M11.517044,1.000000 
	C10.708557,2.459029 9.427398,3.927321 8.123356,5.375000 
	C5.954761,7.782462 3.771481,10.176697 1.297193,12.288251 
	C1.000000,8.412791 1.000000,4.825583 1.000000,1.000000 
	C4.342551,1.000000 7.688319,1.000000 11.517044,1.000000 
z"/>
<path fill="#000000" opacity="1.000000" stroke="none" 
	d="
M81.000000,11.517044 
	C79.540970,10.708559 78.072670,9.427403 76.624992,8.123361 
	C74.217537,5.954767 71.823303,3.771486 69.711746,1.297195 
	C73.587212,1.000000 77.174416,1.000000 81.000000,1.000000 
	C81.000000,4.342551 81.000000,7.688319 81.000000,11.517044 
z"/>
<path fill="#000000" opacity="1.000000" stroke="none" 
	d="
M0.999999,70.482956 
	C2.459027,71.291443 3.927315,72.572609 5.374995,73.876648 
	C7.782462,76.045242 10.176699,78.228516 12.288252,80.702805 
	C8.412791,81.000000 4.825583,81.000000 1.000000,81.000000 
	C1.000000,77.657448 1.000000,74.311684 0.999999,70.482956 
z"/>
<path fill="#000000" opacity="1.000000" stroke="none" 
	d="
M70.482956,81.000000 
	C71.291443,79.540970 72.572601,78.072685 73.876648,76.625000 
	C76.045227,74.217545 78.228508,71.823311 80.702805,69.711754 
	C81.000000,73.587212 81.000000,77.174416 81.000000,81.000000 
	C77.657448,81.000000 74.311684,81.000000 70.482956,81.000000 
z"/>
<path fill="#303B4E" opacity="1.000000" stroke="none" 
	d="
M44.399315,36.947094 
	C44.571659,38.722122 44.603779,40.555973 45.521427,41.640705 
	C50.846668,47.935577 56.380318,54.054150 62.068604,60.486935 
	C55.309067,62.075905 50.360691,61.071270 46.717621,55.139183 
	C44.302513,51.206615 40.855652,47.908352 37.876331,44.321434 
	C34.297222,40.012417 34.331974,37.734543 38.122585,33.462132 
	C40.885361,30.348194 44.003498,27.499887 46.425003,24.144724 
	C49.858051,19.388002 54.094276,17.893270 60.138725,19.605120 
	C54.858818,25.425682 49.763477,31.042782 44.399315,36.947094 
z"/>
<path fill="#313C4E" opacity="1.000000" stroke="none" 
	d="
M23.257538,45.994408 
	C23.257568,36.896381 23.257568,28.297470 23.257568,19.373482 
	C25.851683,19.373482 28.099234,19.373482 30.725094,19.373482 
	C30.725094,32.981163 30.725094,46.790482 30.725094,60.813110 
	C28.408960,60.813110 26.145851,60.813110 23.257509,60.813110 
	C23.257509,56.009121 23.257509,51.251320 23.257538,45.994408 
z"/>
</svg>